#!OML:ASF E:\Style4\Style4.ASF
:FULLY-SPECIFIED
:DEGREES
919
root -0.0723606 16.8512 -1.70802 9.6067 -1.20577 4.18487
lowerback 7.84485 1.05329 -1.34744
upperback 0.955176 1.21819 -1.80608
thorax -3.39843 0.611977 -1.23964
lowerneck 2.40689 -3.75135 -7.79072
upperneck 2.50319 -5.24594 5.78695
head 0.767654 -2.6733 3.22015
rclavicle 2.50717e-014 -1.39149e-014
rhumerus -95.0248 60.0185 -132.273
rradius 87.0319
rwrist 3.97721
rhand -19.0821 38.8819
rfingers 7.12502
rthumb 7.22595 9.0253
lclavicle 2.50717e-014 -1.39149e-014
lhumerus -30.1283 -2.23877 52.3769
lradius 64.1149
lwrist 25.6957
lhand -11.3585 25.4215
lfingers 7.12502
lthumb 14.6751 54.8821
rfemur -35.2045 0.229381 13.6904
rtibia 55.6155
rfoot -27.4716 -15.3141
rtoes -12.9218
lfemur -32.4683 -0.677196 -23.5109
ltibia 51.6863
lfoot -27.1753 7.04167
ltoes -16.2866
920
root -0.0735833 16.8607 -1.70322 9.58443 -1.17892 4.21091
lowerback 7.76058 1.03627 -1.30372
upperback 0.920507 1.2012 -1.79548
thorax -3.38678 0.603096 -1.25007
lowerneck 2.33739 -3.71851 -7.73135
upperneck 2.52241 -5.19765 5.82986
head 0.781952 -2.64779 3.22242
rclavicle -8.19987e-015 1.50082e-014
rhumerus -95.1171 59.998 -132.328
rradius 87.0929
rwrist 4.00895
rhand -18.9637 38.7582
rfingers 7.12502
rthumb 7.34021 8.90554
lclavicle -8.19987e-015 1.50082e-014
lhumerus -29.4999 -2.03626 51.2572
lradius 63.1762
lwrist 24.05
lhand -12.1627 25.735
lfingers 7.12502
lthumb 13.9002 55.2504
rfemur -35.0516 0.219082 13.6685
rtibia 55.4419
rfoot -27.3951 -15.3479
rtoes -13.0369
lfemur -32.3244 -0.696585 -23.5263
ltibia 51.4907
lfoot -27.1684 6.95814
ltoes -16.032
921
root -0.0772875 16.8691 -1.69975 9.53324 -1.06993 4.31531
lowerback 7.71333 1.00594 -1.35218
upperback 0.881731 1.15713 -1.79828
thorax -3.40195 0.581922 -1.22068
lowerneck 2.38507 -3.71018 -7.62533
upperneck 2.47067 -5.18682 5.84282
head 0.753237 -2.64172 3.20841
rclavicle 2.28354e-014 2.48481e-015
rhumerus -95.2438 59.9921 -132.417
rradius 87.1535
rwrist 3.87701
rhand -18.7487 38.7578
rfingers 7.12502
rthumb 7.54769 8.91248
lclavicle 2.28354e-014 2.48481e-015
lhumerus -28.7796 -1.77034 50.0713
lradius 62.0422
lwrist 22.2767
lhand -12.655 25.885
lfingers 7.12502
lthumb 13.4257 55.4323
rfemur -34.8691 0.142897 13.5786
rtibia 55.281
rfoot -27.355 -15.3367
rtoes -12.8244
lfemur -32.155 -0.772971 -23.6089
ltibia 51.2923
lfoot -27.1186 6.90965
ltoes -16.0614
922
root -0.0793126 16.879 -1.69654 9.48801 -0.969934 4.25901
lowerback 7.68379 0.976254 -1.23908
upperback 0.825758 1.12918 -1.73459
thorax -3.44277 0.566968 -1.21555
lowerneck 2.43372 -3.69483 -7.66021
upperneck 2.42042 -5.17031 5.907
head 0.730454 -2.63403 3.23885
rclavicle 2.05494e-014 -1.15295e-014
rhumerus -95.4324 60.0429 -132.532
rradius 87.2244
rwrist 3.74018
rhand -18.6562 38.7249
rfingers 7.12502
rthumb 7.63704 8.88275
lclavicle 2.05494e-014 -1.15295e-014
lhumerus -28.1015 -1.50832 48.8899
lradius 60.9345
lwrist 20.4225
lhand -13.146 26.0709
lfingers 7.12502
lthumb 12.9525 55.6489
rfemur -34.6741 0.107252 13.6588
rtibia 55.1016
rfoot -27.3336 -15.3561
rtoes -12.6953
lfemur -32.0061 -0.80983 -23.5293
ltibia 51.1141
lfoot -26.9943 6.85182
ltoes -15.8623
923
root -0.0813697 16.889 -1.69346 9.47381 -0.933557 4.19168
lowerback 7.67062 0.971792 -1.11083
upperback 0.740887 1.13491 -1.67636
thorax -3.5219 0.568404 -1.22892
lowerneck 2.3519 -3.69874 -7.69937
upperneck 2.50142 -5.17353 5.9333
head 0.773176 -2.63536 3.25272
rclavicle 7.55382e-015 4.17448e-015
rhumerus -95.5662 60.0203 -132.579
rradius 87.2859
rwrist 3.60481
rhand -18.4931 38.6588
rfingers 7.12502
rthumb 7.79442 8.82247
lclavicle 7.55382e-015 4.17448e-015
lhumerus -27.4111 -1.24555 47.6639
lradius 59.8822
lwrist 18.5682
lhand -13.8605 26.3074
lfingers 7.12502
lthumb 12.2636 55.9278
rfemur -34.5472 0.138769 13.7351
rtibia 54.9329
rfoot -27.2892 -15.347
rtoes -12.4837
lfemur -31.8923 -0.815096 -23.4419
ltibia 50.9455
lfoot -26.8983 6.82456
ltoes -15.7336
924
root -0.0828674 16.8969 -1.69004 9.44058 -0.904796 4.2028
lowerback 7.72403 0.97847 -1.00592
upperback 0.633597 1.14923 -1.68502
thorax -3.66054 0.573789 -1.30112
lowerneck 2.31657 -3.72379 -7.64983
upperneck 2.55659 -5.20579 5.95698
head 0.798767 -2.65085 3.24979
rclavicle 1.35174e-014 -3.18055e-015
rhumerus -95.6706 59.9057 -132.635
rradius 87.3332
rwrist 3.51781
rhand -18.3173 38.6351
rfingers 7.12502
rthumb 7.96407 8.80515
lclavicle 1.35174e-014 -3.18055e-015
lhumerus -26.6093 -0.939886 46.3368
lradius 58.7275
lwrist 16.54
lhand -14.7637 26.9613
lfingers 7.12502
lthumb 11.3926 56.6318
rfemur -34.4021 0.160281 13.7276
rtibia 54.7718
rfoot -27.1938 -15.4016
rtoes -12.3489
lfemur -31.7516 -0.880175 -23.4373
ltibia 50.7933
lfoot -26.8999 6.78555
ltoes -15.652
